<?xml version="1.0" encoding="UTF-8"?>
<svg id="Layer_2" data-name="Layer 2" xmlns="http://www.w3.org/2000/svg" viewBox="0 0 48 48">
  <defs>
    <style>
      .cls-1 {
        fill: #e00;
      }

      .cls-1, .cls-2, .cls-3, .cls-4 {
        stroke-width: 0px;
      }

      .cls-2 {
        fill: #151515;
      }

      .cls-3 {
        fill: #fff;
      }

      .cls-4 {
        fill: #000;
        fill-rule: evenodd;
      }
    </style>
  </defs>
  <g id="Layer_1-2" data-name="Layer 1">
    <g>
      <rect class="cls-3" width="48" height="48" rx="13" ry="13"/>
      <path class="cls-4" d="M12,0h24c6.63,0,12,5.37,12,12v24c0,6.63-5.37,12-12,12H12c-6.63,0-12-5.37-12-12V12C0,5.37,5.37,0,12,0ZM45.86,12c0-5.44-4.42-9.85-9.86-9.86H12c-5.44,0-9.85,4.42-9.86,9.86v24c0,5.44,4.42,9.85,9.86,9.86h24c5.44,0,9.85-4.42,9.86-9.86V12Z"/>
      <g>
        <path class="cls-1" d="M16.15,11.35c-1.33.26-2.46,1.28-2.88,2.58-.21.66-.25,1.32-.11,1.96h-2.77c-.64,0-1.15.52-1.15,1.15v3.54c-.64-.14-1.3-.1-1.96.11-1.3.42-2.32,1.55-2.58,2.88-.23,1.15.06,2.32.8,3.22.73.89,1.82,1.41,2.97,1.41.26,0,.52-.03.77-.08v3.54c0,.64.52,1.15,1.15,1.15h3.89c.28,0,.53-.15.67-.39.14-.24.14-.53,0-.77-.35-.59-.41-1.22-.21-1.87.25-.78.93-1.39,1.71-1.54.71-.14,1.4.03,1.94.48.84.69,1.11,1.93.52,2.94-.14.24-.14.53,0,.77.14.24.39.39.67.39h3.89c.64,0,1.15-.52,1.15-1.15v-3.54c.64.14,1.3.1,1.96-.11,1.31-.42,2.32-1.55,2.58-2.88.05-.26.08-.52.08-.77,0-.89-.3-1.75-.87-2.45-.73-.89-1.82-1.41-2.97-1.41-.26,0-.52.03-.77.08v-3.54c0-.64-.52-1.15-1.15-1.15h-2.77c.29-1.37-.23-2.84-1.33-3.74-.89-.73-2.07-1.02-3.22-.8ZM18.39,13.34c.84.69,1.11,1.93.52,2.94-.14.24-.14.53,0,.77.14.24.39.39.67.39h3.5v4.27c0,.28.15.53.39.67.24.14.53.14.77,0,.37-.21.75-.32,1.15-.32.69,0,1.34.31,1.78.84.45.54.62,1.23.48,1.94-.16.79-.76,1.46-1.54,1.71-.65.21-1.27.14-1.87-.21-.24-.14-.53-.14-.77,0-.24.14-.39.39-.39.67v4.27h-2.39c.29-1.37-.23-2.84-1.33-3.74-.89-.73-2.07-1.02-3.22-.8-1.33.26-2.46,1.28-2.88,2.58-.21.66-.25,1.32-.11,1.96h-2.39v-4.27c0-.28-.15-.53-.39-.67-.24-.14-.53-.14-.77,0-.37.21-.75.32-1.15.32-.69,0-1.34-.31-1.78-.84-.45-.54-.62-1.23-.48-1.94.16-.79.76-1.46,1.54-1.71.65-.21,1.27-.14,1.87.21.24.14.53.14.77,0,.24-.14.39-.39.39-.67v-4.27h3.5c.28,0,.53-.15.67-.39.14-.24.14-.53,0-.77-.35-.59-.41-1.22-.21-1.87.25-.78.93-1.39,1.71-1.54.71-.14,1.4.03,1.94.48Z"/>
        <path class="cls-2" d="M43.3,23.64c-.26-1.33-1.28-2.46-2.58-2.88-.66-.21-1.32-.25-1.96-.11v-2.77c0-.64-.52-1.15-1.15-1.15h-3.54c.14-.64.1-1.3-.11-1.96-.42-1.3-1.55-2.32-2.88-2.58-1.15-.23-2.32.06-3.22.8-.89.73-1.41,1.82-1.41,2.97,0,.26.03.52.08.77h-.91v1.54h2.03c.28,0,.53-.15.67-.39.14-.24.14-.53,0-.77-.21-.37-.32-.75-.32-1.15,0-.69.31-1.34.84-1.78.54-.45,1.23-.62,1.94-.48.79.16,1.46.76,1.71,1.54.21.65.14,1.27-.21,1.87-.14.24-.14.53,0,.77.14.24.39.39.67.39h4.27v3.5c0,.28.15.53.39.67.24.14.53.14.77,0,.59-.35,1.22-.41,1.87-.21.78.25,1.39.93,1.54,1.71.14.71-.03,1.4-.48,1.94-.69.84-1.93,1.11-2.94.52-.24-.14-.53-.14-.77,0-.24.14-.39.39-.39.67v3.5h-4.27c-.28,0-.53.15-.67.39-.14.24-.14.53,0,.77.21.37.32.75.32,1.15,0,.69-.31,1.34-.84,1.78-.54.45-1.24.62-1.94.48-.79-.16-1.46-.76-1.71-1.54-.21-.65-.14-1.27.21-1.87.14-.24.14-.53,0-.77-.14-.24-.39-.39-.67-.39h-2.03v1.54h.91c-.14.64-.1,1.3.11,1.96.42,1.31,1.55,2.32,2.88,2.58.26.05.52.08.77.08.89,0,1.75-.3,2.45-.87.89-.73,1.41-1.82,1.41-2.97,0-.26-.03-.52-.08-.77h3.54c.64,0,1.15-.52,1.15-1.15v-2.77c1.37.29,2.84-.23,3.74-1.33.73-.89,1.02-2.07.8-3.22Z"/>
      </g>
    </g>
  </g>
</svg>